<?xml version="1.0" standalone="no"?>
<!DOCTYPE svg PUBLIC "-//W3C//DTD SVG 20010904//EN"
 "http://www.w3.org/TR/2001/REC-SVG-20010904/DTD/svg10.dtd">
<svg version="1.0" xmlns="http://www.w3.org/2000/svg"
 width="35.000000pt" height="35.000000pt" viewBox="0 0 35.000000 35.000000"
 preserveAspectRatio="xMidYMid meet">
<metadata>
Created by potrace 1.13, written by Peter Selinger 2001-2015
</metadata>
<g transform="translate(0.000000,35.000000) scale(0.100000,-0.100000)"
fill="#000000" stroke="none">
<path d="M224 305 c-44 -42 -71 -44 -101 -7 -22 27 -22 27 -23 4 0 -15 -7 -26
-20 -29 -11 -3 -20 -9 -20 -14 0 -5 9 -9 20 -9 15 0 20 -7 20 -27 l1 -28 22
28 c13 15 30 27 39 27 13 0 15 -8 11 -39 -6 -44 19 -95 64 -131 40 -31 48 -23
15 15 -60 67 -60 134 -2 207 39 48 24 49 -26 3z"/>
</g>
</svg>
