<?xml version="1.0" standalone="no"?>
<!DOCTYPE svg PUBLIC "-//W3C//DTD SVG 20010904//EN"
 "http://www.w3.org/TR/2001/REC-SVG-20010904/DTD/svg10.dtd">
<svg version="1.0" xmlns="http://www.w3.org/2000/svg"
 width="27.000000pt" height="33.000000pt" viewBox="0 0 27.000000 33.000000"
 preserveAspectRatio="xMidYMid meet">
<metadata>
Created by potrace 1.13, written by Peter Selinger 2001-2015
</metadata>
<g transform="translate(0.000000,33.000000) scale(0.100000,-0.100000)"
fill="#000000" stroke="none">
<path d="M65 315 c-3 -11 -15 -42 -25 -68 l-19 -49 25 17 c29 19 44 12 44 -21
0 -36 34 -66 66 -58 23 6 25 4 22 -22 -3 -28 -5 -29 -60 -32 -59 -3 -76 -15
-35 -26 39 -10 82 -6 105 10 20 14 22 23 22 105 0 62 5 99 16 120 8 17 14 33
11 35 -10 10 -31 -31 -47 -89 -15 -54 -20 -62 -43 -65 -28 -3 -31 3 -42 79 -3
26 -12 55 -20 65 -13 19 -14 18 -20 -1z"/>
</g>
</svg>
