<?xml version="1.0" standalone="no"?>
<!DOCTYPE svg PUBLIC "-//W3C//DTD SVG 20010904//EN"
 "http://www.w3.org/TR/2001/REC-SVG-20010904/DTD/svg10.dtd">
<svg version="1.0" xmlns="http://www.w3.org/2000/svg"
 width="24.000000pt" height="30.000000pt" viewBox="0 0 24.000000 30.000000"
 preserveAspectRatio="xMidYMid meet">
<metadata>
Created by potrace 1.13, written by Peter Selinger 2001-2015
</metadata>
<g transform="translate(0.000000,30.000000) scale(0.100000,-0.100000)"
fill="#000000" stroke="none">
<path d="M44 284 c3 -9 6 -18 6 -20 0 -2 11 -4 25 -4 29 0 30 -6 13 -97 -9
-49 -18 -69 -35 -80 -14 -9 -23 -25 -23 -41 l0 -25 23 21 c30 28 70 42 120 42
31 0 38 3 27 10 -8 5 -32 10 -54 10 -34 0 -38 2 -33 23 3 12 11 48 17 80 11
56 12 57 46 57 32 0 34 2 24 20 -9 17 -21 20 -86 20 -65 0 -75 -2 -70 -16z"/>
</g>
</svg>
