<?xml version="1.0" standalone="no"?>
<!DOCTYPE svg PUBLIC "-//W3C//DTD SVG 20010904//EN"
 "http://www.w3.org/TR/2001/REC-SVG-20010904/DTD/svg10.dtd">
<svg version="1.0" xmlns="http://www.w3.org/2000/svg"
 width="32.000000pt" height="33.000000pt" viewBox="0 0 32.000000 33.000000"
 preserveAspectRatio="xMidYMid meet">
<metadata>
Created by potrace 1.13, written by Peter Selinger 2001-2015
</metadata>
<g transform="translate(0.000000,33.000000) scale(0.100000,-0.100000)"
fill="#000000" stroke="none">
<path d="M164 306 c-4 -9 -2 -22 5 -29 6 -6 11 -21 11 -33 0 -27 -47 -47 -73
-32 -21 11 -22 51 -2 68 19 15 19 30 2 30 -22 0 -47 -34 -47 -62 0 -30 63
-128 114 -177 44 -43 61 -33 19 12 -52 55 -65 97 -29 97 20 0 46 34 46 61 0
13 -9 37 -20 54 -16 25 -20 27 -26 11z"/>
</g>
</svg>
