<?xml version="1.0" standalone="no"?>
<!DOCTYPE svg PUBLIC "-//W3C//DTD SVG 20010904//EN"
 "http://www.w3.org/TR/2001/REC-SVG-20010904/DTD/svg10.dtd">
<svg version="1.0" xmlns="http://www.w3.org/2000/svg"
 width="30.000000pt" height="31.000000pt" viewBox="0 0 30.000000 31.000000"
 preserveAspectRatio="xMidYMid meet">
<metadata>
Created by potrace 1.13, written by Peter Selinger 2001-2015
</metadata>
<g transform="translate(0.000000,31.000000) scale(0.100000,-0.100000)"
fill="#000000" stroke="none">
<path d="M10 286 c0 -14 9 -27 24 -34 39 -18 40 -94 1 -186 -16 -38 19 -10 43
35 19 35 23 55 19 97 l-4 52 34 0 c48 0 61 -35 41 -110 -8 -30 -18 -63 -23
-72 -14 -33 13 -18 37 20 17 27 23 53 24 97 1 33 5 68 9 78 4 10 4 22 -1 26
-5 5 -53 11 -106 14 -97 6 -98 6 -98 -17z"/>
</g>
</svg>
