<?xml version="1.0" standalone="no"?>
<!DOCTYPE svg PUBLIC "-//W3C//DTD SVG 20010904//EN"
 "http://www.w3.org/TR/2001/REC-SVG-20010904/DTD/svg10.dtd">
<svg version="1.0" xmlns="http://www.w3.org/2000/svg"
 width="28.000000pt" height="35.000000pt" viewBox="0 0 28.000000 35.000000"
 preserveAspectRatio="xMidYMid meet">
<metadata>
Created by potrace 1.13, written by Peter Selinger 2001-2015
</metadata>
<g transform="translate(0.000000,35.000000) scale(0.100000,-0.100000)"
fill="#000000" stroke="none">
<path d="M73 243 c-23 -59 -44 -116 -48 -125 -6 -16 1 -18 69 -18 50 0 88 -5
107 -16 30 -15 30 -15 19 6 -12 22 -66 50 -97 50 -10 0 -25 4 -33 10 -12 8
-11 20 11 87 25 76 26 78 62 84 47 7 60 19 21 19 -16 0 -38 3 -50 6 -18 5 -25
-7 -61 -103z"/>
</g>
</svg>
