<?xml version="1.0" standalone="no"?>
<!DOCTYPE svg PUBLIC "-//W3C//DTD SVG 20010904//EN"
 "http://www.w3.org/TR/2001/REC-SVG-20010904/DTD/svg10.dtd">
<svg version="1.0" xmlns="http://www.w3.org/2000/svg"
 width="27.000000pt" height="35.000000pt" viewBox="0 0 27.000000 35.000000"
 preserveAspectRatio="xMidYMid meet">
<metadata>
Created by potrace 1.13, written by Peter Selinger 2001-2015
</metadata>
<g transform="translate(0.000000,35.000000) scale(0.100000,-0.100000)"
fill="#000000" stroke="none">
<path d="M73 326 c-48 -42 -31 -126 39 -195 34 -33 86 -66 94 -58 3 2 -11 16
-31 31 -19 15 -42 40 -50 57 l-16 29 51 0 c44 0 51 3 48 18 -3 13 -15 18 -65
20 -50 2 -62 6 -66 22 -10 40 57 84 78 50 9 -15 35 -12 35 4 0 20 -39 46 -67
46 -12 0 -34 -11 -50 -24z"/>
</g>
</svg>
