<?xml version="1.0" standalone="no"?>
<!DOCTYPE svg PUBLIC "-//W3C//DTD SVG 20010904//EN"
 "http://www.w3.org/TR/2001/REC-SVG-20010904/DTD/svg10.dtd">
<svg version="1.0" xmlns="http://www.w3.org/2000/svg"
 width="27.000000pt" height="36.000000pt" viewBox="0 0 27.000000 36.000000"
 preserveAspectRatio="xMidYMid meet">
<metadata>
Created by potrace 1.13, written by Peter Selinger 2001-2015
</metadata>
<g transform="translate(0.000000,36.000000) scale(0.100000,-0.100000)"
fill="#000000" stroke="none">
<path d="M40 338 c0 -6 12 -25 27 -40 l27 -28 -22 -15 c-28 -20 -38 -76 -21
-116 14 -34 75 -69 119 -68 19 0 15 4 -20 17 -34 13 -49 26 -63 54 -30 61 -1
118 44 89 24 -14 26 4 4 33 -25 33 -18 46 25 46 27 0 42 -5 49 -17 9 -17 10
-17 16 -1 4 9 5 25 3 35 -3 16 -16 18 -96 21 -68 2 -92 0 -92 -10z"/>
</g>
</svg>
