<?xml version="1.0" standalone="no"?>
<!DOCTYPE svg PUBLIC "-//W3C//DTD SVG 20010904//EN"
 "http://www.w3.org/TR/2001/REC-SVG-20010904/DTD/svg10.dtd">
<svg version="1.0" xmlns="http://www.w3.org/2000/svg"
 width="30.000000pt" height="38.000000pt" viewBox="0 0 30.000000 38.000000"
 preserveAspectRatio="xMidYMid meet">
<metadata>
Created by potrace 1.13, written by Peter Selinger 2001-2015
</metadata>
<g transform="translate(0.000000,38.000000) scale(0.100000,-0.100000)"
fill="#000000" stroke="none">
<path d="M50 326 c0 -17 22 -26 66 -26 21 0 33 -4 29 -10 -4 -6 0 -23 8 -39
14 -28 14 -30 -9 -35 -51 -13 -43 -92 13 -131 54 -36 61 -31 19 15 -20 22 -36
46 -36 54 0 19 27 46 46 46 21 0 28 25 14 50 -6 12 -9 29 -5 38 6 15 8 15 20
-2 13 -17 15 -17 21 -3 3 9 4 24 2 34 -3 16 -16 18 -96 21 -74 2 -92 0 -92
-12z"/>
</g>
</svg>
