<?xml version="1.0" standalone="no"?>
<!DOCTYPE svg PUBLIC "-//W3C//DTD SVG 20010904//EN"
 "http://www.w3.org/TR/2001/REC-SVG-20010904/DTD/svg10.dtd">
<svg version="1.0" xmlns="http://www.w3.org/2000/svg"
 width="25.000000pt" height="42.000000pt" viewBox="0 0 25.000000 42.000000"
 preserveAspectRatio="xMidYMid meet">
<metadata>
Created by potrace 1.13, written by Peter Selinger 2001-2015
</metadata>
<g transform="translate(0.000000,42.000000) scale(0.100000,-0.100000)"
fill="#000000" stroke="none">
<path d="M63 323 c-12 -26 -20 -49 -18 -51 2 -2 14 3 27 12 38 27 113 18 123
-15 11 -33 -14 -86 -61 -128 -24 -23 -44 -44 -44 -47 0 -13 65 35 101 73 32
35 39 50 39 82 0 48 -35 81 -87 81 -26 0 -33 4 -31 17 2 10 -4 19 -12 20 -10
2 -23 -14 -37 -44z"/>
</g>
</svg>
