<?xml version="1.0" standalone="no"?>
<!DOCTYPE svg PUBLIC "-//W3C//DTD SVG 20010904//EN"
 "http://www.w3.org/TR/2001/REC-SVG-20010904/DTD/svg10.dtd">
<svg version="1.0" xmlns="http://www.w3.org/2000/svg"
 width="27.000000pt" height="41.000000pt" viewBox="0 0 27.000000 41.000000"
 preserveAspectRatio="xMidYMid meet">
<metadata>
Created by potrace 1.13, written by Peter Selinger 2001-2015
</metadata>
<g transform="translate(0.000000,41.000000) scale(0.100000,-0.100000)"
fill="#000000" stroke="none">
<path d="M135 328 c-4 -13 -19 -38 -33 -57 -17 -23 -22 -36 -14 -39 7 -2 22
-22 33 -44 17 -34 19 -45 9 -68 -11 -27 -7 -50 8 -50 4 0 13 18 20 40 11 35
10 44 -10 86 l-23 46 29 23 c27 22 28 25 16 54 -15 37 -26 39 -35 9z"/>
</g>
</svg>
