<?xml version="1.0" standalone="no"?>
<!DOCTYPE svg PUBLIC "-//W3C//DTD SVG 20010904//EN"
 "http://www.w3.org/TR/2001/REC-SVG-20010904/DTD/svg10.dtd">
<svg version="1.0" xmlns="http://www.w3.org/2000/svg"
 width="29.000000pt" height="40.000000pt" viewBox="0 0 29.000000 40.000000"
 preserveAspectRatio="xMidYMid meet">
<metadata>
Created by potrace 1.13, written by Peter Selinger 2001-2015
</metadata>
<g transform="translate(0.000000,40.000000) scale(0.100000,-0.100000)"
fill="#000000" stroke="none">
<path d="M200 341 c0 -6 -11 -11 -25 -11 -16 0 -30 -9 -42 -27 -9 -16 -28 -41
-42 -56 -17 -18 -22 -30 -15 -35 18 -12 44 -69 44 -98 0 -15 -8 -36 -17 -47
-17 -19 -17 -20 3 -9 49 26 58 61 29 115 l-23 45 48 26 c26 14 51 33 54 42 9
24 7 52 -4 59 -5 3 -10 1 -10 -4z"/>
</g>
</svg>
