<?xml version="1.0" standalone="no"?>
<!DOCTYPE svg PUBLIC "-//W3C//DTD SVG 20010904//EN"
 "http://www.w3.org/TR/2001/REC-SVG-20010904/DTD/svg10.dtd">
<svg version="1.0" xmlns="http://www.w3.org/2000/svg"
 width="28.000000pt" height="38.000000pt" viewBox="0 0 28.000000 38.000000"
 preserveAspectRatio="xMidYMid meet">
<metadata>
Created by potrace 1.13, written by Peter Selinger 2001-2015
</metadata>
<g transform="translate(0.000000,38.000000) scale(0.100000,-0.100000)"
fill="#000000" stroke="none">
<path d="M50 317 c0 -7 16 -28 35 -47 19 -19 35 -38 35 -43 0 -4 -11 -23 -24
-40 -26 -36 -46 -89 -45 -121 0 -13 10 0 25 34 33 73 50 90 91 90 39 0 44 16
9 30 -24 9 -46 37 -46 59 0 19 78 13 89 -6 9 -17 10 -17 16 -1 4 9 5 25 3 35
-3 16 -16 18 -96 21 -72 2 -92 0 -92 -11z"/>
</g>
</svg>
