<?xml version="1.0" standalone="no"?>
<!DOCTYPE svg PUBLIC "-//W3C//DTD SVG 20010904//EN"
 "http://www.w3.org/TR/2001/REC-SVG-20010904/DTD/svg10.dtd">
<svg version="1.0" xmlns="http://www.w3.org/2000/svg"
 width="32.000000pt" height="41.000000pt" viewBox="0 0 32.000000 41.000000"
 preserveAspectRatio="xMidYMid meet">
<metadata>
Created by potrace 1.13, written by Peter Selinger 2001-2015
</metadata>
<g transform="translate(0.000000,41.000000) scale(0.100000,-0.100000)"
fill="#000000" stroke="none">
<path d="M60 353 c0 -3 8 -15 18 -26 13 -15 17 -37 17 -102 0 -71 -3 -88 -23
-114 -26 -36 -9 -43 29 -12 20 16 26 17 55 5 18 -8 59 -16 91 -19 l58 -5 -49
17 c-57 20 -102 59 -112 97 -10 40 13 105 48 138 35 33 15 39 -25 8 l-26 -20
-33 20 c-34 21 -48 25 -48 13z"/>
</g>
</svg>
