<?xml version="1.0" standalone="no"?>
<!DOCTYPE svg PUBLIC "-//W3C//DTD SVG 20010904//EN"
 "http://www.w3.org/TR/2001/REC-SVG-20010904/DTD/svg10.dtd">
<svg version="1.0" xmlns="http://www.w3.org/2000/svg"
 width="35.000000pt" height="41.000000pt" viewBox="0 0 35.000000 41.000000"
 preserveAspectRatio="xMidYMid meet">
<metadata>
Created by potrace 1.13, written by Peter Selinger 2001-2015
</metadata>
<g transform="translate(0.000000,41.000000) scale(0.100000,-0.100000)"
fill="#000000" stroke="none">
<path d="M88 308 c-34 -37 -35 -42 -7 -35 21 6 21 4 15 -57 -5 -55 -3 -67 15
-90 26 -33 63 -52 114 -61 l40 -6 -47 26 c-52 27 -82 64 -76 92 2 10 24 28 50
40 85 41 100 123 23 123 -38 0 -44 -10 -19 -34 21 -21 10 -53 -26 -71 -16 -8
-31 -15 -35 -15 -10 0 -5 79 5 85 8 5 7 11 -1 21 -16 19 -20 18 -51 -18z"/>
</g>
</svg>
