<?xml version="1.0" standalone="no"?>
<!DOCTYPE svg PUBLIC "-//W3C//DTD SVG 20010904//EN"
 "http://www.w3.org/TR/2001/REC-SVG-20010904/DTD/svg10.dtd">
<svg version="1.0" xmlns="http://www.w3.org/2000/svg"
 width="29.000000pt" height="38.000000pt" viewBox="0 0 29.000000 38.000000"
 preserveAspectRatio="xMidYMid meet">
<metadata>
Created by potrace 1.13, written by Peter Selinger 2001-2015
</metadata>
<g transform="translate(0.000000,38.000000) scale(0.100000,-0.100000)"
fill="#000000" stroke="none">
<path d="M182 295 c-12 -14 -26 -51 -33 -81 -9 -42 -16 -54 -31 -54 -10 0 -21
8 -25 18 -7 21 -33 52 -44 52 -4 0 0 -18 9 -41 16 -40 13 -72 -13 -133 -7 -16
-5 -17 12 -8 11 6 26 25 33 42 18 44 52 41 77 -7 20 -39 53 -62 39 -27 -23 57
-29 140 -13 199 8 33 14 61 12 63 -1 2 -12 -9 -23 -23z"/>
</g>
</svg>
