<?xml version="1.0" standalone="no"?>
<!DOCTYPE svg PUBLIC "-//W3C//DTD SVG 1.1//EN" "http://www.w3.org/Graphics/SVG/1.1/DTD/svg11.dtd" >
<svg xmlns="http://www.w3.org/2000/svg">
<metadata>Generated by IcoMoon</metadata>
<defs>
<font id="icomoon" horiz-adv-x="1024">
<font-face units-per-em="1024" ascent="960" descent="-64" />
<missing-glyph horiz-adv-x="1024" />
<glyph unicode="&#x20;" horiz-adv-x="512" d="" />
<glyph unicode="&#xe900;" glyph-name="a" horiz-adv-x="740" d="M150.756 627.2c-65.422-167.822-125.156-329.956-136.533-355.556-17.067-45.511 2.844-51.2 196.267-51.2 147.911 0 247.467-14.222 310.044-45.511l88.178-48.356-45.511 68.267c-42.667 65.422-147.911 116.622-315.733 153.6-62.578 11.378-79.644 31.289-71.111 79.644 5.689 48.356 34.133 65.422 108.089 76.8 88.178 14.222 93.867 19.911 36.978 39.822-48.356 14.222-65.422 42.667-65.422 105.244 0 128 48.356 196.267 136.533 196.267 42.667 0 96.711 14.222 119.467 28.444 34.133 19.911 22.756 28.444-42.667 28.444-45.511 0-110.933 8.533-145.067 17.067-51.2 14.222-71.111-19.911-173.511-292.978z" />
<glyph unicode="&#xe901;" glyph-name="b" d="M655.36 828.343c-128.731-122.88-207.726-128.731-295.497-20.48-64.366 78.994-64.366 78.994-67.291 11.703 0-43.886-20.48-76.069-58.514-84.846-32.183-8.777-58.514-26.331-58.514-40.96s26.331-26.331 58.514-26.331c43.886 0 58.514-20.48 58.514-78.994l2.926-81.92 64.366 81.92c38.034 43.886 87.771 78.994 114.103 78.994 38.034 0 43.886-23.406 32.183-114.103-17.554-128.731 55.589-277.943 187.246-383.269 117.029-90.697 140.434-67.291 43.886 43.886-175.543 196.023-175.543 392.046-5.851 605.623 114.103 140.434 70.217 143.36-76.069 8.777z" />
<glyph unicode="&#xe902;" glyph-name="ch" horiz-adv-x="838" d="M201.697 913.455c-9.309-34.133-46.545-130.327-77.576-211.006l-58.958-152.048 77.576 52.752c89.988 58.958 136.533 37.236 136.533-65.164 0-111.709 105.503-204.8 204.8-179.976 71.37 18.618 77.576 12.412 68.267-68.267-9.309-86.885-15.515-89.988-186.182-99.297-183.079-9.309-235.83-46.545-108.606-80.679 121.018-31.030 254.448-18.618 325.818 31.030 62.061 43.442 68.267 71.37 68.267 325.818 0 192.388 15.515 307.2 49.648 372.364 24.824 52.752 43.442 102.4 34.133 108.606-31.030 31.030-96.194-96.194-145.842-276.17-46.545-167.564-62.061-192.388-133.43-201.697-86.885-9.309-96.194 9.309-130.327 245.139-9.309 80.679-37.236 170.667-62.061 201.697-40.339 58.958-43.442 55.855-62.061-3.103z" />
<glyph unicode="&#xe903;" glyph-name="D" horiz-adv-x="928" d="M214.4 940.8c-12.8-12.8-22.4-73.6-22.4-137.6 0-131.2 67.2-220.8 297.6-403.2 195.2-156.8 201.6-240 16-240-124.8 0-131.2-3.2-83.2-54.4 41.6-41.6 76.8-44.8 156.8-22.4 224 64 204.8 230.4-51.2 428.8-188.8 144-240 214.4-268.8 361.6-9.6 51.2-28.8 80-44.8 67.2zM131.2 428.8c-124.8-160-51.2-364.8 131.2-364.8 83.2 0 70.4 89.6-12.8 102.4-86.4 12.8-115.2 144-57.6 249.6 54.4 102.4 16 112-60.8 12.8z" />
<glyph unicode="&#xe904;" glyph-name="e" horiz-adv-x="869" d="M186.182 556.606c0-245.139 12.412-400.291 37.236-443.733 34.133-58.958 43.442-15.515 55.855 304.097l15.515 372.364 139.636 9.309c102.4 9.309 145.842-3.103 176.873-43.442 34.133-46.545 40.339-46.545 58.958-3.103 9.309 27.927 12.412 74.473 6.206 105.503-9.309 46.545-46.545 55.855-251.345 65.164l-238.933 9.309v-375.467z" />
<glyph unicode="&#xe905;" glyph-name="gh" horiz-adv-x="819" d="M150.187 905.387c10.24-30.72 20.48-61.44 20.48-68.267s37.547-13.653 85.333-13.653c98.987 0 102.4-20.48 44.373-331.093-30.72-167.253-61.44-235.52-119.467-273.067-47.787-30.72-78.507-85.333-78.507-139.947v-85.333l78.507 71.68c102.4 95.573 238.933 143.36 409.6 143.36 105.813 0 129.707 10.24 92.16 34.133-27.307 17.067-109.227 34.133-184.32 34.133-116.053 0-129.707 6.827-112.64 78.507 10.24 40.96 37.547 163.84 58.027 273.067 37.547 191.147 40.96 194.56 157.013 194.56 109.227 0 116.053 6.827 81.92 68.267-30.72 58.027-71.68 68.267-293.547 68.267s-256-6.827-238.933-54.613z" />
<glyph unicode="&#xe906;" glyph-name="glottal" horiz-adv-x="709" d="M262.564 917.99c0-7.877 26.256-36.759 60.39-63.015l57.764-47.262-57.764-63.015c-34.133-34.133-60.39-89.272-60.39-120.779 0-60.39 118.154-157.538 152.287-123.405 10.503 10.503-7.877 36.759-39.385 57.764-73.518 49.887-76.144 91.897-7.877 152.287 65.641 60.39 68.267 160.164 2.626 196.923-57.764 28.882-107.651 34.133-107.651 10.503z" />
<glyph unicode="&#xe907;" glyph-name="H" horiz-adv-x="813" d="M231.906 815.435c-60.235-63.247-111.435-135.529-111.435-159.624 0-114.447 391.529-611.388 439.718-560.188 12.047 9.035-30.118 75.294-90.353 144.565-60.235 72.282-108.424 147.576-108.424 171.671s42.165 90.353 90.353 147.576c51.2 54.212 90.353 117.459 90.353 138.541s-45.176 81.318-99.388 135.529l-99.388 96.376-111.435-114.447z" />
<glyph unicode="&#xe908;" glyph-name="I" horiz-adv-x="993" d="M508.897 885.527c-12.412-27.927-6.206-68.267 15.515-89.988 18.618-18.618 34.133-65.164 34.133-102.4 0-83.782-145.842-145.842-226.521-99.297-65.164 34.133-68.267 158.255-6.206 211.006 58.958 46.545 58.958 93.091 6.206 93.091-68.267 0-145.842-105.503-145.842-192.388 0-93.091 195.491-397.188 353.745-549.236 136.533-133.43 189.285-102.4 58.958 37.236-161.358 170.667-201.697 300.994-89.988 300.994 62.061 0 142.739 105.503 142.739 189.285 0 40.339-27.927 114.812-62.061 167.564-49.648 77.576-62.061 83.782-80.679 34.133z" />
<glyph unicode="&#xe909;" glyph-name="J" horiz-adv-x="991" d="M33.032 880.723c0-46.245 29.729-89.187 79.277-112.31 128.826-59.458 132.129-310.503 3.303-614.4-52.852-125.523 62.761-33.032 142.039 115.613 62.761 115.613 75.974 181.677 62.761 320.413l-13.213 171.768h112.31c158.555 0 201.497-115.613 135.432-363.355-26.426-99.097-59.458-208.103-75.974-237.832-46.245-109.006 42.942-59.458 122.219 66.065 56.155 89.187 75.974 175.071 79.277 320.413 3.303 109.006 16.516 224.619 29.729 257.652s13.213 72.671-3.303 85.884c-16.516 16.516-175.071 36.335-350.142 46.245-320.413 19.819-323.716 19.819-323.716-56.155z" />
<glyph unicode="&#xe90a;" glyph-name="l" horiz-adv-x="819" d="M213.577 646.949c-67.291-172.617-128.731-339.383-140.434-365.714-17.554-46.811 2.926-52.663 201.874-52.663 146.286 0 257.463-14.629 313.051-46.811 87.771-43.886 87.771-43.886 55.589 17.554-35.109 64.366-193.097 146.286-283.794 146.286-29.257 0-73.143 11.703-96.549 29.257-35.109 23.406-32.183 58.514 32.183 254.537 73.143 222.354 76.069 228.206 181.394 245.76 137.509 20.48 175.543 55.589 61.44 55.589-46.811 0-111.177 8.777-146.286 17.554-52.663 14.629-73.143-20.48-178.469-301.349z" />
<glyph unicode="&#xe90b;" glyph-name="m" horiz-adv-x="819" d="M210.651 863.451c-52.663-52.663-93.623-114.103-93.623-137.509 0-78.994 137.509-336.457 234.057-447.634 134.583-155.063 163.84-134.583 46.811 32.183-181.394 257.463-210.651 435.931-78.994 512 78.994 46.811 84.846 46.811 131.657-5.851 52.663-55.589 64.366-193.097 17.554-222.354s-35.109-73.143 14.629-52.663c46.811 14.629 131.657 155.063 131.657 210.651 0 14.629-35.109 67.291-76.069 117.029-102.4 122.88-204.8 119.954-327.68-5.851z" />
<glyph unicode="&#xe90c;" glyph-name="n" horiz-adv-x="790" d="M213.577 889.783c-140.434-122.88-90.697-368.64 114.103-570.514 99.474-96.549 251.611-193.097 275.017-169.691 8.777 5.851-32.183 46.811-90.697 90.697-55.589 43.886-122.88 117.029-146.286 166.766l-46.811 84.846h149.211c128.731 0 149.211 8.777 140.434 52.663-8.777 38.034-43.886 52.663-190.171 58.514s-181.394 17.554-193.097 64.366c-29.257 117.029 166.766 245.76 228.206 146.286 26.331-43.886 102.4-35.109 102.4 11.703 0 58.514-114.103 134.583-196.023 134.583-35.109 0-99.474-32.183-146.286-70.217z" />
<glyph unicode="&#xe90d;" glyph-name="ng" horiz-adv-x="768" d="M113.778 897.422c0-17.067 34.133-71.111 76.8-113.778l76.8-79.644-62.578-42.667c-79.644-56.889-108.089-216.178-59.733-329.956 39.822-96.711 213.333-196.267 338.489-193.422 54.044 0 42.667 11.378-56.889 48.356-96.711 36.978-139.378 73.956-179.2 153.6-85.333 173.511-2.844 335.644 125.156 253.156 68.267-39.822 73.956 11.378 11.378 93.867-71.111 93.867-51.2 130.844 71.111 130.844 76.8 0 119.467-14.222 139.378-48.356 25.6-48.356 28.444-48.356 45.511-2.844 11.378 25.6 14.222 71.111 8.533 99.556-8.533 45.511-45.511 51.2-273.067 59.733-193.422 5.689-261.689 0-261.689-28.444z" />
<glyph unicode="&#xe90e;" glyph-name="o" horiz-adv-x="808" d="M134.737 814.484c0-45.811 59.284-70.063 177.853-70.063 56.589 0 88.926-10.779 78.147-26.947s0-61.979 21.558-105.095c37.726-75.453 37.726-80.842-24.253-94.316-137.432-35.032-115.874-247.916 35.032-353.011 145.516-97.011 164.379-83.537 51.2 40.421-53.895 59.284-97.011 123.958-97.011 145.516 0 51.2 72.758 123.958 123.958 123.958 56.589 0 75.453 67.368 37.726 134.737-16.168 32.337-24.253 78.147-13.474 102.4 16.168 40.421 21.558 40.421 53.895-5.389 35.032-45.811 40.421-45.811 56.589-8.084 8.084 24.253 10.779 64.674 5.389 91.621-8.084 43.116-43.116 48.505-258.695 56.589-199.411 5.389-247.916 0-247.916-32.337z" />
<glyph unicode="&#xe90f;" glyph-name="p" horiz-adv-x="610" d="M153.6 723.505c-29.257-63.39-48.762-119.467-43.886-124.343s34.133 7.314 65.829 29.257c92.648 65.829 275.505 43.886 299.886-36.571 26.819-80.457-34.133-209.676-148.724-312.076-58.514-56.076-107.276-107.276-107.276-114.59 0-31.695 158.476 85.333 246.248 177.981 78.019 85.333 95.086 121.905 95.086 199.924 0 117.029-85.333 197.486-212.114 197.486-63.39 0-80.457 9.752-75.581 41.448 4.876 24.381-9.752 46.324-29.257 48.762-24.381 4.876-56.076-34.133-90.21-107.276z" />
<glyph unicode="&#xe910;" glyph-name="q" horiz-adv-x="674" d="M337.171 755.2c-9.99-32.468-47.454-94.907-82.42-142.361-42.459-57.444-54.946-89.912-34.966-97.405 17.483-4.995 54.946-54.946 82.42-109.893 42.459-84.917 47.454-112.39 22.478-169.834-27.473-67.434-17.483-124.878 19.98-124.878 9.99 0 32.468 44.956 49.951 99.902 27.473 87.415 24.976 109.893-24.976 214.79l-57.444 114.888 72.429 57.444c67.434 54.946 69.932 62.439 39.961 134.868-37.463 92.41-64.937 97.405-87.415 22.478z" />
<glyph unicode="&#xe911;" glyph-name="Qupper" horiz-adv-x="742" d="M512 808.96c0-15.36-28.16-28.16-64-28.16-40.96 0-76.8-23.040-107.52-69.12-23.040-40.96-71.68-104.96-107.52-143.36-43.52-46.080-56.32-76.8-38.4-89.6 46.080-30.72 112.64-176.64 112.64-250.88 0-38.4-20.48-92.16-43.52-120.32-43.52-48.64-43.52-51.2 7.68-23.040 125.44 66.56 148.48 156.16 74.24 294.4l-58.88 115.2 122.88 66.56c66.56 35.84 130.56 84.48 138.24 107.52 23.040 61.44 17.92 133.12-10.24 151.040-12.8 7.68-25.6 2.56-25.6-10.24z" />
<glyph unicode="&#xe912;" glyph-name="r" horiz-adv-x="755" d="M134.737 790.232c0-18.863 43.116-75.453 94.316-126.653s94.316-102.4 94.316-115.874c0-10.779-29.642-61.979-64.674-107.789-70.063-97.011-123.958-239.832-121.263-326.063 0-35.032 26.947 0 67.368 91.621 88.926 196.716 134.737 242.526 245.221 242.526 105.095 0 118.568 43.116 24.253 80.842-64.674 24.253-123.958 99.705-123.958 158.989 0 51.2 210.189 35.032 239.832-16.168 24.253-45.811 26.947-45.811 43.116-2.695 10.779 24.253 13.474 67.368 8.084 94.316-8.084 43.116-43.116 48.505-258.695 56.589-194.021 5.389-247.916 0-247.916-29.642z" />
<glyph unicode="&#xe913;" glyph-name="s" horiz-adv-x="799" d="M149.854 817.639c0-7.493 19.98-37.463 44.956-64.937 32.468-37.463 42.459-92.41 42.459-254.751 0-177.327-7.493-219.785-57.444-284.722-64.937-89.912-22.478-107.395 72.429-29.971 49.951 39.961 64.937 42.459 137.366 12.488 44.956-19.98 147.356-39.961 227.278-47.454l144.859-12.488-122.38 42.459c-142.361 49.951-254.751 147.356-279.727 242.263-24.976 99.902 32.468 262.244 119.883 344.663s37.463 97.405-62.439 19.98l-64.937-49.951-82.42 49.951c-84.917 52.449-119.883 62.439-119.883 32.468z" />
<glyph unicode="&#xe914;" glyph-name="t" horiz-adv-x="869" d="M561.648 659.006c-34.133-117.915-65.164-238.933-71.37-273.067-18.618-111.709-114.812-93.091-167.564 34.133l-49.648 117.915-46.545-86.885c-24.824-49.648-52.752-173.77-62.061-279.273l-15.515-189.285 65.164 99.297c83.782 133.43 167.564 170.667 347.539 158.255 83.782-3.103 152.048-9.309 152.048-6.206 0 0-21.721 49.648-49.648 102.4-49.648 102.4-49.648 353.745 3.103 477.867 12.412 31.030 9.309 52.752-12.412 52.752-18.618 0-58.958-93.091-93.091-207.903z" />
<glyph unicode="&#xe915;" glyph-name="tlh" horiz-adv-x="874" d="M219.785 705.249c-84.917-92.41-87.415-104.898-17.483-87.415 52.449 14.985 52.449 9.99 37.463-142.361-12.488-137.366-7.493-167.337 37.463-224.78 64.937-82.42 157.346-129.873 284.722-152.351l99.902-14.985-117.385 64.937c-129.873 67.434-204.8 159.844-189.815 229.776 4.995 24.976 59.941 69.932 124.878 99.902 212.293 102.4 249.756 307.2 57.444 307.2-94.907 0-109.893-24.976-47.454-84.917 52.449-52.449 24.976-132.371-64.937-177.327-39.961-19.98-77.424-37.463-87.415-37.463-24.976 0-12.488 197.307 12.488 212.293 19.98 12.488 17.483 27.473-2.498 52.449-39.961 47.454-49.951 44.956-127.376-44.956z" />
<glyph unicode="&#xe916;" glyph-name="u" horiz-adv-x="819" d="M373.76 724.48c-140.8-156.16-350.72-514.56-320-545.28 10.24-7.68 99.84 25.6 204.8 76.8 104.96 48.64 256 104.96 335.36 120.32 112.64 23.040 148.48 40.96 148.48 74.24 0 25.6-12.8 53.76-25.6 61.44-40.96 25.6-256-53.76-422.4-156.16-81.92-48.64-151.040-84.48-156.16-79.36-20.48 20.48 197.12 271.36 322.56 371.2 148.48 122.88 181.76 176.64 122.88 212.48-53.76 35.84-61.44 30.72-209.92-135.68z" />
<glyph unicode="&#xe917;" glyph-name="v" horiz-adv-x="781" d="M490.442 730.947c-32.337-37.726-70.063-137.432-88.926-218.274-24.253-113.179-43.116-145.516-83.537-145.516-26.947 0-56.589 21.558-67.368 48.505-18.863 56.589-88.926 140.126-118.568 140.126-10.779 0 0-48.505 24.253-110.484 43.116-107.789 35.032-194.021-35.032-358.4-18.863-43.116-13.474-45.811 32.337-21.558 29.642 16.168 70.063 67.368 88.926 113.179 48.505 118.568 140.126 110.484 207.495-18.863 53.895-105.095 142.821-167.074 105.095-72.758-61.979 153.6-78.147 377.263-35.032 536.253 21.558 88.926 37.726 164.379 32.337 169.768-2.695 5.389-32.337-24.253-61.979-61.979z" />
<glyph unicode="&#xe918;" glyph-name="w" horiz-adv-x="936" d="M175.543 775.68c0-140.434 70.217-356.937 157.989-491.52 73.143-111.177 283.794-245.76 348.16-222.354 17.554 5.851-20.48 35.109-84.846 70.217-131.657 67.291-260.389 289.646-292.571 500.297l-20.48 122.88h222.354c181.394 0 228.206-8.777 251.611-49.737 26.331-49.737 29.257-49.737 46.811-2.926 11.703 26.331 14.629 73.143 8.777 102.4-8.777 46.811-46.811 52.663-324.754 61.44l-313.051 8.777v-99.474z" />
<glyph unicode="&#xe919;" glyph-name="y" horiz-adv-x="835" d="M202.105 784.842c-86.232-83.537-91.621-266.779-13.474-417.684 56.589-110.484 218.274-226.358 363.789-256l80.842-16.168-72.758 56.589c-102.4 80.842-94.316 158.989 32.337 312.589 105.095 129.347 156.295 266.779 123.958 347.621-10.779 32.337-61.979 40.421-231.747 40.421-196.716 0-223.663-8.084-282.947-67.368zM614.4 687.832c5.389-24.253-35.032-94.316-88.926-158.989-51.2-61.979-102.4-142.821-110.484-177.853-21.558-88.926-56.589-80.842-118.568 24.253-59.284 97.011-72.758 285.642-21.558 336.842s328.758 32.337 339.537-24.253z" />
</font>
</defs>
</svg>
